<svg id="mermaid-svg" width="100%" xmlns="http://www.w3.org/2000/svg" class="flowchart" style="max-width: 1386.5625px;" viewBox="0 0 1386.5625 654.15625" role="graphics-document document" aria-roledescription="flowchart-v2" xmlns:xlink="http://www.w3.org/1999/xlink"><style xmlns="http://www.w3.org/1999/xhtml">@import url("https://cdnjs.cloudflare.com/ajax/libs/font-awesome/6.7.2/css/all.min.css");</style><style>#mermaid-svg{font-family:"trebuchet ms",verdana,arial,sans-serif;font-size:16px;fill:#333;}@keyframes edge-animation-frame{from{stroke-dashoffset:0;}}@keyframes dash{to{stroke-dashoffset:0;}}#mermaid-svg .edge-animation-slow{stroke-dasharray:9,5!important;stroke-dashoffset:900;animation:dash 50s linear infinite;stroke-linecap:round;}#mermaid-svg .edge-animation-fast{stroke-dasharray:9,5!important;stroke-dashoffset:900;animation:dash 20s linear infinite;stroke-linecap:round;}#mermaid-svg .error-icon{fill:#552222;}#mermaid-svg .error-text{fill:#552222;stroke:#552222;}#mermaid-svg .edge-thickness-normal{stroke-width:1px;}#mermaid-svg .edge-thickness-thick{stroke-width:3.5px;}#mermaid-svg .edge-pattern-solid{stroke-dasharray:0;}#mermaid-svg .edge-thickness-invisible{stroke-width:0;fill:none;}#mermaid-svg .edge-pattern-dashed{stroke-dasharray:3;}#mermaid-svg .edge-pattern-dotted{stroke-dasharray:2;}#mermaid-svg .marker{fill:#333333;stroke:#333333;}#mermaid-svg .marker.cross{stroke:#333333;}#mermaid-svg svg{font-family:"trebuchet ms",verdana,arial,sans-serif;font-size:16px;}#mermaid-svg p{margin:0;}#mermaid-svg .label{font-family:"trebuchet ms",verdana,arial,sans-serif;color:#333;}#mermaid-svg .cluster-label text{fill:#333;}#mermaid-svg .cluster-label span{color:#333;}#mermaid-svg .cluster-label span p{background-color:transparent;}#mermaid-svg .label text,#mermaid-svg span{fill:#333;color:#333;}#mermaid-svg .node rect,#mermaid-svg .node circle,#mermaid-svg .node ellipse,#mermaid-svg .node polygon,#mermaid-svg .node path{fill:#ECECFF;stroke:#9370DB;stroke-width:1px;}#mermaid-svg .rough-node .label text,#mermaid-svg .node .label text,#mermaid-svg .image-shape .label,#mermaid-svg .icon-shape .label{text-anchor:middle;}#mermaid-svg .node .katex path{fill:#000;stroke:#000;stroke-width:1px;}#mermaid-svg .rough-node .label,#mermaid-svg .node .label,#mermaid-svg .image-shape .label,#mermaid-svg .icon-shape .label{text-align:center;}#mermaid-svg .node.clickable{cursor:pointer;}#mermaid-svg .root .anchor path{fill:#333333!important;stroke-width:0;stroke:#333333;}#mermaid-svg .arrowheadPath{fill:#333333;}#mermaid-svg .edgePath .path{stroke:#333333;stroke-width:2.0px;}#mermaid-svg .flowchart-link{stroke:#333333;fill:none;}#mermaid-svg .edgeLabel{background-color:rgba(232,232,232, 0.8);text-align:center;}#mermaid-svg .edgeLabel p{background-color:rgba(232,232,232, 0.8);}#mermaid-svg .edgeLabel rect{opacity:0.5;background-color:rgba(232,232,232, 0.8);fill:rgba(232,232,232, 0.8);}#mermaid-svg .labelBkg{background-color:rgba(232, 232, 232, 0.5);}#mermaid-svg .cluster rect{fill:#ffffde;stroke:#aaaa33;stroke-width:1px;}#mermaid-svg .cluster text{fill:#333;}#mermaid-svg .cluster span{color:#333;}#mermaid-svg div.mermaidTooltip{position:absolute;text-align:center;max-width:200px;padding:2px;font-family:"trebuchet ms",verdana,arial,sans-serif;font-size:12px;background:hsl(80, 100%, 96.2745098039%);border:1px solid #aaaa33;border-radius:2px;pointer-events:none;z-index:100;}#mermaid-svg .flowchartTitleText{text-anchor:middle;font-size:18px;fill:#333;}#mermaid-svg rect.text{fill:none;stroke-width:0;}#mermaid-svg .icon-shape,#mermaid-svg .image-shape{background-color:rgba(232,232,232, 0.8);text-align:center;}#mermaid-svg .icon-shape p,#mermaid-svg .image-shape p{background-color:rgba(232,232,232, 0.8);padding:2px;}#mermaid-svg .icon-shape rect,#mermaid-svg .image-shape rect{opacity:0.5;background-color:rgba(232,232,232, 0.8);fill:rgba(232,232,232, 0.8);}#mermaid-svg .label-icon{display:inline-block;height:1em;overflow:visible;vertical-align:-0.125em;}#mermaid-svg .node .label-icon path{fill:currentColor;stroke:revert;stroke-width:revert;}#mermaid-svg :root{--mermaid-font-family:"trebuchet ms",verdana,arial,sans-serif;}</style><g><marker id="mermaid-svg_flowchart-v2-pointEnd" class="marker flowchart-v2" viewBox="0 0 10 10" refX="5" refY="5" markerUnits="userSpaceOnUse" markerWidth="8" markerHeight="8" orient="auto"><path d="M 0 0 L 10 5 L 0 10 z" class="arrowMarkerPath" style="stroke-width: 1; stroke-dasharray: 1, 0;"/></marker><marker id="mermaid-svg_flowchart-v2-pointStart" class="marker flowchart-v2" viewBox="0 0 10 10" refX="4.5" refY="5" markerUnits="userSpaceOnUse" markerWidth="8" markerHeight="8" orient="auto"><path d="M 0 5 L 10 10 L 10 0 z" class="arrowMarkerPath" style="stroke-width: 1; stroke-dasharray: 1, 0;"/></marker><marker id="mermaid-svg_flowchart-v2-circleEnd" class="marker flowchart-v2" viewBox="0 0 10 10" refX="11" refY="5" markerUnits="userSpaceOnUse" markerWidth="11" markerHeight="11" orient="auto"><circle cx="5" cy="5" r="5" class="arrowMarkerPath" style="stroke-width: 1; stroke-dasharray: 1, 0;"/></marker><marker id="mermaid-svg_flowchart-v2-circleStart" class="marker flowchart-v2" viewBox="0 0 10 10" refX="-1" refY="5" markerUnits="userSpaceOnUse" markerWidth="11" markerHeight="11" orient="auto"><circle cx="5" cy="5" r="5" class="arrowMarkerPath" style="stroke-width: 1; stroke-dasharray: 1, 0;"/></marker><marker id="mermaid-svg_flowchart-v2-crossEnd" class="marker cross flowchart-v2" viewBox="0 0 11 11" refX="12" refY="5.2" markerUnits="userSpaceOnUse" markerWidth="11" markerHeight="11" orient="auto"><path d="M 1,1 l 9,9 M 10,1 l -9,9" class="arrowMarkerPath" style="stroke-width: 2; stroke-dasharray: 1, 0;"/></marker><marker id="mermaid-svg_flowchart-v2-crossStart" class="marker cross flowchart-v2" viewBox="0 0 11 11" refX="-1" refY="5.2" markerUnits="userSpaceOnUse" markerWidth="11" markerHeight="11" orient="auto"><path d="M 1,1 l 9,9 M 10,1 l -9,9" class="arrowMarkerPath" style="stroke-width: 2; stroke-dasharray: 1, 0;"/></marker><g class="root"><g class="clusters"/><g class="edgePaths"><path d="M718.059,86L718.059,90.167C718.059,94.333,718.059,102.667,718.059,110.333C718.059,118,718.059,125,718.059,128.5L718.059,132" id="L_ProjDetail_Tabs_0" class=" edge-thickness-normal edge-pattern-solid edge-thickness-normal edge-pattern-solid flowchart-link" style=";" data-edge="true" data-et="edge" data-id="L_ProjDetail_Tabs_0" data-points="W3sieCI6NzE4LjA1ODU5Mzc1LCJ5Ijo4Nn0seyJ4Ijo3MTguMDU4NTkzNzUsInkiOjExMX0seyJ4Ijo3MTguMDU4NTkzNzUsInkiOjEzNn1d" marker-end="url(#mermaid-svg_flowchart-v2-pointEnd)"/><path d="M663.187,206.285L568.403,219.597C473.619,232.908,284.052,259.532,189.268,290.344C94.484,321.156,94.484,356.156,94.484,373.656L94.484,391.156" id="L_Tabs_Prep_0" class=" edge-thickness-normal edge-pattern-solid edge-thickness-normal edge-pattern-solid flowchart-link" style=";" data-edge="true" data-et="edge" data-id="L_Tabs_Prep_0" data-points="W3sieCI6NjYzLjE4NjkzOTY2NTM4MjcsInkiOjIwNi4yODQ1OTU5MTUzODI3fSx7IngiOjk0LjQ4NDM3NSwieSI6Mjg2LjE1NjI1fSx7IngiOjk0LjQ4NDM3NSwieSI6Mzk1LjE1NjI1fV0=" marker-end="url(#mermaid-svg_flowchart-v2-pointEnd)"/><path d="M666.81,209.908L609.325,222.616C551.839,235.324,436.869,260.74,379.384,290.948C321.898,321.156,321.898,356.156,321.898,373.656L321.898,391.156" id="L_Tabs_Exc_0" class=" edge-thickness-normal edge-pattern-solid edge-thickness-normal edge-pattern-solid flowchart-link" style=";" data-edge="true" data-et="edge" data-id="L_Tabs_Exc_0" data-points="W3sieCI6NjY2LjgwOTg5MDE4NzA1MDMsInkiOjIwOS45MDc1NDY0MzcwNTAzfSx7IngiOjMyMS44OTg0Mzc1LCJ5IjoyODYuMTU2MjV9LHsieCI6MzIxLjg5ODQzNzUsInkiOjM5NS4xNTYyNX1d" marker-end="url(#mermaid-svg_flowchart-v2-pointEnd)"/><path d="M681.234,224.331L666.499,234.635C651.765,244.94,622.297,265.548,607.562,279.352C592.828,293.156,592.828,300.156,592.828,303.656L592.828,307.156" id="L_Tabs_Mile_0" class=" edge-thickness-normal edge-pattern-solid edge-thickness-normal edge-pattern-solid flowchart-link" style=";" data-edge="true" data-et="edge" data-id="L_Tabs_Mile_0" data-points="W3sieCI6NjgxLjIzMzUzOTg4NzUwMjUsInkiOjIyNC4zMzExOTYxMzc1MDI1M30seyJ4Ijo1OTIuODI4MTI1LCJ5IjoyODYuMTU2MjV9LHsieCI6NTkyLjgyODEyNSwieSI6MzExLjE1NjI1fV0=" marker-end="url(#mermaid-svg_flowchart-v2-pointEnd)"/><path d="M754.884,224.331L769.618,234.635C784.352,244.94,813.821,265.548,828.555,293.352C843.289,321.156,843.289,356.156,843.289,373.656L843.289,391.156" id="L_Tabs_Docs_0" class=" edge-thickness-normal edge-pattern-solid edge-thickness-normal edge-pattern-solid flowchart-link" style=";" data-edge="true" data-et="edge" data-id="L_Tabs_Docs_0" data-points="W3sieCI6NzU0Ljg4MzY0NzYxMjQ5NzUsInkiOjIyNC4zMzExOTYxMzc1MDI1M30seyJ4Ijo4NDMuMjg5MDYyNSwieSI6Mjg2LjE1NjI1fSx7IngiOjg0My4yODkwNjI1LCJ5IjozOTUuMTU2MjV9XQ==" marker-end="url(#mermaid-svg_flowchart-v2-pointEnd)"/><path d="M767.607,211.607L814.858,224.032C862.108,236.457,956.609,261.307,1003.859,291.231C1051.109,321.156,1051.109,356.156,1051.109,373.656L1051.109,391.156" id="L_Tabs_Owner_0" class=" edge-thickness-normal edge-pattern-solid edge-thickness-normal edge-pattern-solid flowchart-link" style=";" data-edge="true" data-et="edge" data-id="L_Tabs_Owner_0" data-points="W3sieCI6NzY3LjYwNzQ3OTAyODA0MzUsInkiOjIxMS42MDczNjQ3MjE5NTY1MX0seyJ4IjoxMDUxLjEwOTM3NSwieSI6Mjg2LjE1NjI1fSx7IngiOjEwNTEuMTA5Mzc1LCJ5IjozOTUuMTU2MjV9XQ==" marker-end="url(#mermaid-svg_flowchart-v2-pointEnd)"/><path d="M772.244,206.97L857.456,220.168C942.668,233.366,1113.092,259.761,1198.304,290.459C1283.516,321.156,1283.516,356.156,1283.516,373.656L1283.516,391.156" id="L_Tabs_Time_0" class=" edge-thickness-normal edge-pattern-solid edge-thickness-normal edge-pattern-solid flowchart-link" style=";" data-edge="true" data-et="edge" data-id="L_Tabs_Time_0" data-points="W3sieCI6NzcyLjI0NDQwNjYzNDY5NywieSI6MjA2Ljk3MDQzNzExNTMwMjkzfSx7IngiOjEyODMuNTE1NjI1LCJ5IjoyODYuMTU2MjV9LHsieCI6MTI4My41MTU2MjUsInkiOjM5NS4xNTYyNX1d" marker-end="url(#mermaid-svg_flowchart-v2-pointEnd)"/><path d="M94.484,449.156L94.484,467.323C94.484,485.49,94.484,521.823,179.497,547.768C264.51,573.712,434.536,589.268,519.55,597.046L604.563,604.824" id="L_Prep_Done_0" class=" edge-thickness-normal edge-pattern-solid edge-thickness-normal edge-pattern-solid flowchart-link" style=";" data-edge="true" data-et="edge" data-id="L_Prep_Done_0" data-points="W3sieCI6OTQuNDg0Mzc1LCJ5Ijo0NDkuMTU2MjV9LHsieCI6OTQuNDg0Mzc1LCJ5Ijo1NTguMTU2MjV9LHsieCI6NjA4LjU0NTg4ODg2ODQ1ODcsInkiOjYwNS4xODgzNjIyMzQ3NDQyfV0=" marker-end="url(#mermaid-svg_flowchart-v2-pointEnd)"/><path d="M321.898,449.156L321.898,467.323C321.898,485.49,321.898,521.823,369.409,546.836C416.92,571.849,511.942,585.542,559.452,592.388L606.963,599.235" id="L_Exc_Done_0" class=" edge-thickness-normal edge-pattern-solid edge-thickness-normal edge-pattern-solid flowchart-link" style=";" data-edge="true" data-et="edge" data-id="L_Exc_Done_0" data-points="W3sieCI6MzIxLjg5ODQzNzUsInkiOjQ0OS4xNTYyNX0seyJ4IjozMjEuODk4NDM3NSwieSI6NTU4LjE1NjI1fSx7IngiOjYxMC45MjIxNTczODM5Nzc4LCJ5Ijo1OTkuODA1MjM5NjYwNTI4OX1d" marker-end="url(#mermaid-svg_flowchart-v2-pointEnd)"/><path d="M592.828,533.156L592.828,537.323C592.828,541.49,592.828,549.823,601.54,557.963C610.252,566.103,627.676,574.05,636.388,578.023L645.1,581.996" id="L_Mile_Done_0" class=" edge-thickness-normal edge-pattern-solid edge-thickness-normal edge-pattern-solid flowchart-link" style=";" data-edge="true" data-et="edge" data-id="L_Mile_Done_0" data-points="W3sieCI6NTkyLjgyODEyNSwieSI6NTMzLjE1NjI1fSx7IngiOjU5Mi44MjgxMjUsInkiOjU1OC4xNTYyNX0seyJ4Ijo2NDguNzM5ODM2ODM2MjgzMiwieSI6NTgzLjY1NjI1fV0=" marker-end="url(#mermaid-svg_flowchart-v2-pointEnd)"/><path d="M843.289,449.156L843.289,467.323C843.289,485.49,843.289,521.823,834.742,543.959C826.194,566.095,809.1,574.033,800.553,578.002L792.005,581.972" id="L_Docs_Done_0" class=" edge-thickness-normal edge-pattern-solid edge-thickness-normal edge-pattern-solid flowchart-link" style=";" data-edge="true" data-et="edge" data-id="L_Docs_Done_0" data-points="W3sieCI6ODQzLjI4OTA2MjUsInkiOjQ0OS4xNTYyNX0seyJ4Ijo4NDMuMjg5MDYyNSwieSI6NTU4LjE1NjI1fSx7IngiOjc4OC4zNzczNTA2NjM3MTY4LCJ5Ijo1ODMuNjU2MjV9XQ==" marker-end="url(#mermaid-svg_flowchart-v2-pointEnd)"/><path d="M1051.109,449.156L1051.109,467.323C1051.109,485.49,1051.109,521.823,1014.009,546.379C976.909,570.935,902.709,583.715,865.609,590.104L828.509,596.494" id="L_Owner_Done_0" class=" edge-thickness-normal edge-pattern-solid edge-thickness-normal edge-pattern-solid flowchart-link" style=";" data-edge="true" data-et="edge" data-id="L_Owner_Done_0" data-points="W3sieCI6MTA1MS4xMDkzNzUsInkiOjQ0OS4xNTYyNX0seyJ4IjoxMDUxLjEwOTM3NSwieSI6NTU4LjE1NjI1fSx7IngiOjgyNC41NjcxNzQ4NTg3ODk4LCJ5Ijo1OTcuMTcyNTUxNTA3NjM0OX1d" marker-end="url(#mermaid-svg_flowchart-v2-pointEnd)"/><path d="M1283.516,449.156L1283.516,467.323C1283.516,485.49,1283.516,521.823,1208.299,547.596C1133.082,573.369,982.649,588.582,907.433,596.188L832.216,603.795" id="L_Time_Done_0" class=" edge-thickness-normal edge-pattern-solid edge-thickness-normal edge-pattern-solid flowchart-link" style=";" data-edge="true" data-et="edge" data-id="L_Time_Done_0" data-points="W3sieCI6MTI4My41MTU2MjUsInkiOjQ0OS4xNTYyNX0seyJ4IjoxMjgzLjUxNTYyNSwieSI6NTU4LjE1NjI1fSx7IngiOjgyOC4yMzY0Mjg0NjcwMzIzLCJ5Ijo2MDQuMTk3MzMxMjUxMDEyN31d" marker-end="url(#mermaid-svg_flowchart-v2-pointEnd)"/></g><g class="edgeLabels"><g class="edgeLabel"><g class="label" data-id="L_ProjDetail_Tabs_0" transform="translate(0, 0)"><foreignObject width="0" height="0"><div xmlns="http://www.w3.org/1999/xhtml" class="labelBkg" style="display: table-cell; white-space: nowrap; line-height: 1.5; max-width: 200px; text-align: center;"><span class="edgeLabel "></span></div></foreignObject></g></g><g class="edgeLabel"><g class="label" data-id="L_Tabs_Prep_0" transform="translate(0, 0)"><foreignObject width="0" height="0"><div xmlns="http://www.w3.org/1999/xhtml" class="labelBkg" style="display: table-cell; white-space: nowrap; line-height: 1.5; max-width: 200px; text-align: center;"><span class="edgeLabel "></span></div></foreignObject></g></g><g class="edgeLabel"><g class="label" data-id="L_Tabs_Exc_0" transform="translate(0, 0)"><foreignObject width="0" height="0"><div xmlns="http://www.w3.org/1999/xhtml" class="labelBkg" style="display: table-cell; white-space: nowrap; line-height: 1.5; max-width: 200px; text-align: center;"><span class="edgeLabel "></span></div></foreignObject></g></g><g class="edgeLabel"><g class="label" data-id="L_Tabs_Mile_0" transform="translate(0, 0)"><foreignObject width="0" height="0"><div xmlns="http://www.w3.org/1999/xhtml" class="labelBkg" style="display: table-cell; white-space: nowrap; line-height: 1.5; max-width: 200px; text-align: center;"><span class="edgeLabel "></span></div></foreignObject></g></g><g class="edgeLabel"><g class="label" data-id="L_Tabs_Docs_0" transform="translate(0, 0)"><foreignObject width="0" height="0"><div xmlns="http://www.w3.org/1999/xhtml" class="labelBkg" style="display: table-cell; white-space: nowrap; line-height: 1.5; max-width: 200px; text-align: center;"><span class="edgeLabel "></span></div></foreignObject></g></g><g class="edgeLabel"><g class="label" data-id="L_Tabs_Owner_0" transform="translate(0, 0)"><foreignObject width="0" height="0"><div xmlns="http://www.w3.org/1999/xhtml" class="labelBkg" style="display: table-cell; white-space: nowrap; line-height: 1.5; max-width: 200px; text-align: center;"><span class="edgeLabel "></span></div></foreignObject></g></g><g class="edgeLabel"><g class="label" data-id="L_Tabs_Time_0" transform="translate(0, 0)"><foreignObject width="0" height="0"><div xmlns="http://www.w3.org/1999/xhtml" class="labelBkg" style="display: table-cell; white-space: nowrap; line-height: 1.5; max-width: 200px; text-align: center;"><span class="edgeLabel "></span></div></foreignObject></g></g><g class="edgeLabel"><g class="label" data-id="L_Prep_Done_0" transform="translate(0, 0)"><foreignObject width="0" height="0"><div xmlns="http://www.w3.org/1999/xhtml" class="labelBkg" style="display: table-cell; white-space: nowrap; line-height: 1.5; max-width: 200px; text-align: center;"><span class="edgeLabel "></span></div></foreignObject></g></g><g class="edgeLabel"><g class="label" data-id="L_Exc_Done_0" transform="translate(0, 0)"><foreignObject width="0" height="0"><div xmlns="http://www.w3.org/1999/xhtml" class="labelBkg" style="display: table-cell; white-space: nowrap; line-height: 1.5; max-width: 200px; text-align: center;"><span class="edgeLabel "></span></div></foreignObject></g></g><g class="edgeLabel"><g class="label" data-id="L_Mile_Done_0" transform="translate(0, 0)"><foreignObject width="0" height="0"><div xmlns="http://www.w3.org/1999/xhtml" class="labelBkg" style="display: table-cell; white-space: nowrap; line-height: 1.5; max-width: 200px; text-align: center;"><span class="edgeLabel "></span></div></foreignObject></g></g><g class="edgeLabel"><g class="label" data-id="L_Docs_Done_0" transform="translate(0, 0)"><foreignObject width="0" height="0"><div xmlns="http://www.w3.org/1999/xhtml" class="labelBkg" style="display: table-cell; white-space: nowrap; line-height: 1.5; max-width: 200px; text-align: center;"><span class="edgeLabel "></span></div></foreignObject></g></g><g class="edgeLabel"><g class="label" data-id="L_Owner_Done_0" transform="translate(0, 0)"><foreignObject width="0" height="0"><div xmlns="http://www.w3.org/1999/xhtml" class="labelBkg" style="display: table-cell; white-space: nowrap; line-height: 1.5; max-width: 200px; text-align: center;"><span class="edgeLabel "></span></div></foreignObject></g></g><g class="edgeLabel"><g class="label" data-id="L_Time_Done_0" transform="translate(0, 0)"><foreignObject width="0" height="0"><div xmlns="http://www.w3.org/1999/xhtml" class="labelBkg" style="display: table-cell; white-space: nowrap; line-height: 1.5; max-width: 200px; text-align: center;"><span class="edgeLabel "></span></div></foreignObject></g></g></g><g class="nodes"><g class="node default  " id="flowchart-ProjDetail-0" transform="translate(718.05859375, 47)"><rect class="basic label-container" style="" x="-98.046875" y="-39" width="196.09375" height="78"/><g class="label" style="" transform="translate(-68.046875, -24)"><rect/><foreignObject width="136.09375" height="48"><div xmlns="http://www.w3.org/1999/xhtml" style="display: table-cell; white-space: nowrap; line-height: 1.5; max-width: 200px; text-align: center;"><span class="nodeLabel "><p>Project Detail page<br />(output of Phase 2)</p></span></div></foreignObject></g></g><g class="node default  " id="flowchart-Tabs-1" transform="translate(718.05859375, 198.578125)"><polygon points="62.578125,0 125.15625,-62.578125 62.578125,-125.15625 0,-62.578125" class="label-container" transform="translate(-62.078125, 62.578125)"/><g class="label" style="" transform="translate(-35.578125, -12)"><rect/><foreignObject width="71.15625" height="24"><div xmlns="http://www.w3.org/1999/xhtml" style="display: table-cell; white-space: nowrap; line-height: 1.5; max-width: 200px; text-align: center;"><span class="nodeLabel "><p>Select tab</p></span></div></foreignObject></g></g><g class="node default  " id="flowchart-Prep-3" transform="translate(94.484375, 422.15625)"><rect class="basic label-container" style="" x="-86.484375" y="-27" width="172.96875" height="54"/><g class="label" style="" transform="translate(-56.484375, -12)"><rect/><foreignObject width="112.96875" height="24"><div xmlns="http://www.w3.org/1999/xhtml" style="display: table-cell; white-space: nowrap; line-height: 1.5; max-width: 200px; text-align: center;"><span class="nodeLabel "><p>Preparing stage</p></span></div></foreignObject></g></g><g class="node default  " id="flowchart-Exc-5" transform="translate(321.8984375, 422.15625)"><rect class="basic label-container" style="" x="-90.9296875" y="-27" width="181.859375" height="54"/><g class="label" style="" transform="translate(-60.9296875, -12)"><rect/><foreignObject width="121.859375" height="24"><div xmlns="http://www.w3.org/1999/xhtml" style="display: table-cell; white-space: nowrap; line-height: 1.5; max-width: 200px; text-align: center;"><span class="nodeLabel "><p>Excavation stage</p></span></div></foreignObject></g></g><g class="node default  " id="flowchart-Mile-7" transform="translate(592.828125, 422.15625)"><rect class="basic label-container" style="" x="-130" y="-111" width="260" height="222"/><g class="label" style="" transform="translate(-100, -96)"><rect/><foreignObject width="200" height="192"><div xmlns="http://www.w3.org/1999/xhtml" style="display: table; white-space: break-spaces; line-height: 1.5; max-width: 200px; text-align: center; width: 200px;"><span class="nodeLabel "><p>Milestones<br />(per-milestone accordion:<br />BOQ, Main Contractor + Duties,<br />Expenses, Advances, Purchase Orders,<br />Vouchers, Surveying Visits, Payment Claims)</p></span></div></foreignObject></g></g><g class="node default  " id="flowchart-Docs-9" transform="translate(843.2890625, 422.15625)"><rect class="basic label-container" style="" x="-70.4609375" y="-27" width="140.921875" height="54"/><g class="label" style="" transform="translate(-40.4609375, -12)"><rect/><foreignObject width="80.921875" height="24"><div xmlns="http://www.w3.org/1999/xhtml" style="display: table-cell; white-space: nowrap; line-height: 1.5; max-width: 200px; text-align: center;"><span class="nodeLabel "><p>Documents</p></span></div></foreignObject></g></g><g class="node default  " id="flowchart-Owner-11" transform="translate(1051.109375, 422.15625)"><rect class="basic label-container" style="" x="-87.359375" y="-27" width="174.71875" height="54"/><g class="label" style="" transform="translate(-57.359375, -12)"><rect/><foreignObject width="114.71875" height="24"><div xmlns="http://www.w3.org/1999/xhtml" style="display: table-cell; white-space: nowrap; line-height: 1.5; max-width: 200px; text-align: center;"><span class="nodeLabel "><p>Owner Payment</p></span></div></foreignObject></g></g><g class="node default  " id="flowchart-Time-13" transform="translate(1283.515625, 422.15625)"><rect class="basic label-container" style="" x="-95.046875" y="-27" width="190.09375" height="54"/><g class="label" style="" transform="translate(-65.046875, -12)"><rect/><foreignObject width="130.09375" height="24"><div xmlns="http://www.w3.org/1999/xhtml" style="display: table-cell; white-space: nowrap; line-height: 1.5; max-width: 200px; text-align: center;"><span class="nodeLabel "><p>Timeframe (Gantt)</p></span></div></foreignObject></g></g><g class="node default  " id="flowchart-Done-15" transform="translate(718.05859375, 614.65625)"><g class="basic label-container outer-path"><path d="M-80.1484375 -31.5 C-35.83362349953091 -31.5, 8.481190500938183 -31.5, 80.1484375 -31.5 C80.1484375 -31.5, 80.1484375 -31.5, 80.1484375 -31.5 C80.8120583999399 -31.47871896939865, 81.47567929987979 -31.457437938797298, 82.16664942939245 -31.435279871635593 C82.62129034156848 -31.391421209623665, 83.07593125374453 -31.347562547611737, 84.17656809306193 -31.241385435432253 C84.91338654575947 -31.122262342112556, 85.65020499845701 -31.00313924879286, 86.16993430409322 -30.91911344521856 C86.76831485840594 -30.78253698849472, 87.36669541271868 -30.645960531770875, 88.13855689314947 -30.469788185729428 C88.61768850710594 -30.327584437720315, 89.0968201210624 -30.185380689711202, 90.07434636774406 -29.895256030836062 C90.75748639497218 -29.643854185938924, 91.44062642220031 -29.392452341041786, 91.96934815370028 -29.197877856399685 C92.58714978090902 -28.924395402468512, 93.20495140811775 -28.65091294853734, 93.81577528220308 -28.380519338926202 C94.2296843322881 -28.164583252618247, 94.64359338237311 -27.94864716631029, 95.60604038812403 -27.44653917988677 C96.02368441424441 -27.19336091690387, 96.44132844036479 -26.94018265392097, 97.33278688813228 -26.399775304092984 C97.78648047818936 -26.08329829574813, 98.24017406824645 -25.76682128740328, 98.9889192104733 -25.244529088840633 C99.32535172219747 -24.976233113585735, 99.66178423392165 -24.707937138330838, 100.56763195219533 -23.985547688627737 C101.09136954528343 -23.509903063922486, 101.61510713837151 -23.034258439217233, 102.06243784400982 -22.62800452807842 C102.56184149039122 -22.112329261387735, 103.0612451367726 -21.596653994697046, 103.46719440787243 -21.177478043231485 C103.98328684809574 -20.571246496453416, 104.49937928831906 -19.965014949675343, 104.77612919774293 -19.63992875855011 C105.19393913625895 -19.080101504207075, 105.61174907477498 -18.520274249864045, 105.9838635198041 -18.02167479384835 C106.28555232255383 -17.558199778038105, 106.58724112530354 -17.094724762227862, 107.0854345346684 -16.329365901781543 C107.36362489602848 -15.835410745358, 107.64181525738856 -15.341455588934457, 108.0763156507495 -14.56995614258631 C108.40549294901855 -13.886412439464758, 108.7346702472876 -13.202868736343206, 108.95243512499809 -12.750675308355413 C109.11304734339782 -12.35396002368209, 109.27365956179754 -11.957244739008766, 109.71019279456745 -10.878999214271206 C109.86181849129966 -10.422326773987816, 110.01344418803187 -9.965654333704427, 110.34647487065482 -8.962618978877531 C110.51072103729697 -8.33627716073206, 110.67496720393913 -7.709935342586586, 110.85866673372745 -7.009409419623907 C110.93947130688912 -6.594495014491322, 111.02027588005079 -6.179580609358737, 111.24466367755518 -5.027396693551458 C111.3072523992278 -4.541970927799634, 111.36984112090043 -4.05654516204781, 111.50287955789975 -3.024725316091981 C111.55088276435002 -2.2770366281380756, 111.5988859708003 -1.5293479401841696, 111.63225331032167 -1.0096246935071378 C111.63225331032167 -0.5812810227393013, 111.63225331032167 -0.15293735197146463, 111.63225331032167 1.00962469350713 C111.5871626890821 1.7119475158078123, 111.54207206784253 2.414270338108495, 111.50287955789975 3.02472531609196 C111.43662322808562 3.5385963263380877, 111.3703668982715 4.052467336584216, 111.24466367755518 5.027396693551435 C111.14640272038373 5.5319459411661915, 111.04814176321227 6.036495188780947, 110.85866673372745 7.0094094196239 C110.7250554725365 7.518927066031895, 110.59144421134555 8.02844471243989, 110.34647487065482 8.96261897887751 C110.2137960833384 9.362226346780618, 110.08111729602197 9.761833714683727, 109.71019279456746 10.878999214271184 C109.46708012336832 11.47949221239681, 109.22396745216916 12.079985210522437, 108.95243512499809 12.750675308355405 C108.65864986165089 13.360726693693506, 108.3648645983037 13.970778079031607, 108.0763156507495 14.569956142586303 C107.84998697824905 14.971825618874131, 107.62365830574859 15.37369509516196, 107.08543453466841 16.329365901781536 C106.68449982845775 16.9453092765644, 106.28356512224708 17.56125265134727, 105.98386351980412 18.021674793848334 C105.57136650371797 18.574383216152526, 105.15886948763183 19.12709163845672, 104.77612919774295 19.639928758550102 C104.47272540006351 19.996324123469524, 104.16932160238409 20.352719488388946, 103.46719440787246 21.177478043231467 C102.95728245147225 21.70400400276487, 102.44737049507205 22.23052996229827, 102.06243784400982 22.628004528078414 C101.54221787861107 23.10045453638753, 101.02199791321233 23.57290454469665, 100.56763195219536 23.985547688627715 C100.11185982608059 24.3490138305986, 99.65608769996581 24.712479972569486, 98.98891921047331 25.24452908884063 C98.33615333842161 25.699870303404726, 97.68338746636992 26.15521151796882, 97.33278688813229 26.399775304092973 C96.80109094424847 26.722092509867533, 96.26939500036467 27.044409715642093, 95.60604038812404 27.446539179886766 C94.90430973943691 27.812631609826912, 94.20257909074977 28.17872403976706, 93.81577528220309 28.3805193389262 C93.0835688273338 28.704645416364066, 92.35136237246452 29.02877149380193, 91.9693481537003 29.197877856399682 C91.40258945885655 29.406450295162124, 90.83583076401281 29.61502273392456, 90.07434636774407 29.895256030836055 C89.6786141092396 30.012707287919167, 89.28288185073514 30.13015854500228, 88.13855689314951 30.46978818572942 C87.39950369420681 30.63847225561526, 86.6604504952641 30.807156325501094, 86.16993430409323 30.919113445218557 C85.6097040142178 31.00968713383483, 85.04947372434238 31.100260822451105, 84.17656809306196 31.24138543543225 C83.48266691588456 31.30832524745629, 82.78876573870717 31.37526505948033, 82.16664942939245 31.435279871635593 C81.44273334718288 31.45849445137488, 80.71881726497332 31.481709031114168, 80.1484375 31.5 C80.1484375 31.5, 80.1484375 31.5, 80.1484375 31.5 C21.148455558092593 31.5, -37.851526383814814 31.5, -80.1484375 31.5 C-80.84652765546154 31.477613607464406, -81.54461781092309 31.45522721492881, -82.16664942939244 31.435279871635593 C-82.8357497824729 31.37073256528483, -83.50485013555338 31.306185258934065, -84.17656809306195 31.24138543543225 C-84.93148093204559 31.119336982061878, -85.68639377102924 30.997288528691502, -86.16993430409323 30.919113445218557 C-86.92999478405635 30.74563460052513, -87.69005526401946 30.572155755831705, -88.13855689314947 30.469788185729428 C-88.64639592768617 30.319064225980426, -89.15423496222287 30.16834026623142, -90.07434636774403 29.89525603083607 C-90.54331078857489 29.72267278891073, -91.01227520940573 29.550089546985394, -91.96934815370028 29.197877856399685 C-92.34323613965512 29.03236873601052, -92.71712412560996 28.866859615621355, -93.81577528220308 28.380519338926206 C-94.41552780727156 28.067628830757805, -95.01528033234004 27.754738322589404, -95.60604038812403 27.446539179886773 C-96.03640090881285 27.185652103166067, -96.46676142950167 26.92476502644536, -97.33278688813226 26.399775304092994 C-97.67196109895634 26.16318205723706, -98.01113530978043 25.926588810381123, -98.9889192104733 25.244529088840636 C-99.38634622851185 24.927591617932006, -99.7837732465504 24.610654147023375, -100.56763195219533 23.98554768862774 C-101.10283708641461 23.499488546481658, -101.63804222063389 23.013429404335575, -102.0624378440098 22.628004528078435 C-102.45462813617503 22.223035851996023, -102.84681842834026 21.818067175913612, -103.46719440787244 21.177478043231478 C-103.79948373217991 20.787152095101742, -104.13177305648738 20.396826146972007, -104.77612919774293 19.639928758550113 C-105.1098979969691 19.19270897455019, -105.44366679619527 18.745489190550266, -105.9838635198041 18.021674793848355 C-106.30659913897021 17.525866216160985, -106.62933475813632 17.030057638473615, -107.0854345346684 16.329365901781557 C-107.44974639663164 15.682493300289533, -107.81405825859487 15.035620698797507, -108.0763156507495 14.569956142586314 C-108.38544615662438 13.928040032803901, -108.69457666249926 13.28612392302149, -108.95243512499809 12.750675308355417 C-109.1239518875867 12.327025588710521, -109.29546865017532 11.903375869065625, -109.71019279456745 10.878999214271209 C-109.84549728642817 10.471483642629874, -109.98080177828889 10.06396807098854, -110.34647487065482 8.962618978877522 C-110.49166807977889 8.408934345352531, -110.63686128890296 7.85524971182754, -110.85866673372743 7.009409419623911 C-110.98167363794956 6.377794963961764, -111.10468054217166 5.746180508299617, -111.24466367755518 5.027396693551461 C-111.30323924084064 4.573096191762691, -111.36181480412611 4.11879568997392, -111.50287955789975 3.024725316091999 C-111.54666925202008 2.3426654837628687, -111.59045894614042 1.6606056514337382, -111.63225331032167 1.0096246935071416 C-111.63225331032167 0.2830602908527182, -111.63225331032167 -0.4435041118017051, -111.63225331032167 -1.0096246935071262 C-111.59771141704603 -1.547642562989624, -111.5631695237704 -2.0856604324721215, -111.50287955789975 -3.024725316091956 C-111.43909426245757 -3.5194314717102086, -111.3753089670154 -4.014137627328462, -111.24466367755518 -5.027396693551446 C-111.09264832984393 -5.807963375593612, -110.94063298213267 -6.588530057635779, -110.85866673372745 -7.009409419623896 C-110.71852776512591 -7.543820043514748, -110.57838879652438 -8.0782306674056, -110.34647487065482 -8.962618978877506 C-110.10913954713656 -9.67743515906594, -109.87180422361833 -10.392251339254372, -109.71019279456746 -10.878999214271168 C-109.54539399914582 -11.286055425130579, -109.38059520372418 -11.69311163598999, -108.95243512499809 -12.750675308355401 C-108.73956827571844 -13.192697875505532, -108.52670142643879 -13.634720442655665, -108.0763156507495 -14.5699561425863 C-107.81737514003302 -15.029731239933378, -107.55843462931655 -15.489506337280456, -107.0854345346684 -16.329365901781546 C-106.78973304803706 -16.78364279221445, -106.49403156140575 -17.23791968264735, -105.98386351980412 -18.021674793848344 C-105.62327911004145 -18.5048250530148, -105.26269470027879 -18.98797531218126, -104.77612919774295 -19.639928758550102 C-104.4431028079245 -20.031120505769245, -104.11007641810606 -20.42231225298839, -103.46719440787246 -21.177478043231467 C-102.97502546329692 -21.685682886327537, -102.48285651872139 -22.193887729423604, -102.06243784400984 -22.628004528078403 C-101.73821637141687 -22.92245389105726, -101.41399489882389 -23.216903254036115, -100.56763195219536 -23.98554768862771 C-99.96797583996617 -24.46375748061117, -99.36831972773697 -24.94196727259463, -98.98891921047331 -25.244529088840626 C-98.4854635958508 -25.595717931358994, -97.98200798122829 -25.946906773877366, -97.3327868881323 -26.39977530409297 C-96.88875439154663 -26.668950412947797, -96.44472189496095 -26.938125521802625, -95.60604038812404 -27.446539179886763 C-95.14781796318877 -27.685593525470022, -94.6895955382535 -27.924647871053285, -93.81577528220309 -28.3805193389262 C-93.31093881726419 -28.603995466513, -92.80610235232527 -28.827471594099798, -91.9693481537003 -29.19787785639968 C-91.3188409090858 -29.437270535640867, -90.6683336644713 -29.676663214882055, -90.07434636774407 -29.895256030836055 C-89.35203448087246 -30.109634407367082, -88.62972259400087 -30.32401278389811, -88.13855689314951 -30.469788185729417 C-87.36557673439259 -30.646215862798748, -86.59259657563567 -30.82264353986808, -86.16993430409325 -30.919113445218553 C-85.73742759671235 -30.98903777552829, -85.30492088933144 -31.058962105838024, -84.17656809306196 -31.24138543543225 C-83.75452822932853 -31.282099113509418, -83.3324883655951 -31.322812791586582, -82.16664942939246 -31.435279871635593 C-81.36454422404377 -31.461001824368058, -80.56243901869507 -31.48672377710052, -80.14843750000001 -31.5 C-80.14843750000001 -31.5, -80.1484375 -31.5, -80.1484375 -31.5" stroke="none" stroke-width="0" fill="#ECECFF" style=""/><path d="M-80.1484375 -31.5 C-29.19587686159764 -31.5, 21.75668377680472 -31.5, 80.1484375 -31.5 M-80.1484375 -31.5 C-35.54253884960212 -31.5, 9.063359800795766 -31.5, 80.1484375 -31.5 M80.1484375 -31.5 C80.1484375 -31.5, 80.1484375 -31.5, 80.1484375 -31.5 M80.1484375 -31.5 C80.1484375 -31.5, 80.1484375 -31.5, 80.1484375 -31.5 M80.1484375 -31.5 C80.8577845743314 -31.477252619986512, 81.56713164866281 -31.454505239973024, 82.16664942939245 -31.435279871635593 M80.1484375 -31.5 C80.88934990061037 -31.476240381410925, 81.63026230122074 -31.452480762821853, 82.16664942939245 -31.435279871635593 M82.16664942939245 -31.435279871635593 C82.6776658961035 -31.385982727679195, 83.18868236281456 -31.3366855837228, 84.17656809306193 -31.241385435432253 M82.16664942939245 -31.435279871635593 C82.80622041121163 -31.373581228216143, 83.44579139303079 -31.311882584796688, 84.17656809306193 -31.241385435432253 M84.17656809306193 -31.241385435432253 C84.93121794508082 -31.11937949975485, 85.6858677970997 -30.997373564077442, 86.16993430409322 -30.91911344521856 M84.17656809306193 -31.241385435432253 C84.79351876273314 -31.141641635683712, 85.41046943240437 -31.04189783593517, 86.16993430409322 -30.91911344521856 M86.16993430409322 -30.91911344521856 C86.75731901045258 -30.78504671903546, 87.34470371681195 -30.65097999285236, 88.13855689314947 -30.469788185729428 M86.16993430409322 -30.91911344521856 C86.68955667141364 -30.800513030730514, 87.20917903873406 -30.681912616242464, 88.13855689314947 -30.469788185729428 M88.13855689314947 -30.469788185729428 C88.71044046047834 -30.300056144824325, 89.2823240278072 -30.13032410391922, 90.07434636774406 -29.895256030836062 M88.13855689314947 -30.469788185729428 C88.91275364089601 -30.24001065483991, 89.68695038864256 -30.010233123950396, 90.07434636774406 -29.895256030836062 M90.07434636774406 -29.895256030836062 C90.67218961923312 -29.675244187885653, 91.27003287072218 -29.45523234493524, 91.96934815370028 -29.197877856399685 M90.07434636774406 -29.895256030836062 C90.49849417196155 -29.7391657181047, 90.92264197617905 -29.583075405373336, 91.96934815370028 -29.197877856399685 M91.96934815370028 -29.197877856399685 C92.51041275398912 -28.958364607962928, 93.05147735427794 -28.71885135952617, 93.81577528220308 -28.380519338926202 M91.96934815370028 -29.197877856399685 C92.63522481357728 -28.903114011601446, 93.30110147345427 -28.60835016680321, 93.81577528220308 -28.380519338926202 M93.81577528220308 -28.380519338926202 C94.45183769428442 -28.048685985960784, 95.08790010636577 -27.716852632995366, 95.60604038812403 -27.44653917988677 M93.81577528220308 -28.380519338926202 C94.50362201028675 -28.02167014147181, 95.19146873837042 -27.66282094401741, 95.60604038812403 -27.44653917988677 M95.60604038812403 -27.44653917988677 C96.10272351561815 -27.14544694916579, 96.59940664311226 -26.844354718444816, 97.33278688813228 -26.399775304092984 M95.60604038812403 -27.44653917988677 C96.27087553307618 -27.043512208011794, 96.93571067802833 -26.64048523613682, 97.33278688813228 -26.399775304092984 M97.33278688813228 -26.399775304092984 C97.90636649584515 -25.999670999613517, 98.479946103558 -25.599566695134055, 98.9889192104733 -25.244529088840633 M97.33278688813228 -26.399775304092984 C97.94436015500979 -25.97316826769926, 98.55593342188729 -25.54656123130554, 98.9889192104733 -25.244529088840633 M98.9889192104733 -25.244529088840633 C99.53290689596666 -24.81071338577994, 100.07689458146004 -24.37689768271925, 100.56763195219533 -23.985547688627737 M98.9889192104733 -25.244529088840633 C99.56001298991379 -24.78909699718057, 100.13110676935426 -24.33366490552051, 100.56763195219533 -23.985547688627737 M100.56763195219533 -23.985547688627737 C101.15734982054958 -23.44998152366818, 101.74706768890384 -22.914415358708624, 102.06243784400982 -22.62800452807842 M100.56763195219533 -23.985547688627737 C101.04601043474302 -23.551097007978967, 101.52438891729074 -23.1166463273302, 102.06243784400982 -22.62800452807842 M102.06243784400982 -22.62800452807842 C102.42462606830439 -22.254015450288048, 102.78681429259895 -21.880026372497674, 103.46719440787243 -21.177478043231485 M102.06243784400982 -22.62800452807842 C102.53968744463789 -22.135205132509025, 103.01693704526595 -21.642405736939633, 103.46719440787243 -21.177478043231485 M103.46719440787243 -21.177478043231485 C103.89627294489978 -20.673457978378746, 104.32535148192713 -20.169437913526007, 104.77612919774293 -19.63992875855011 M103.46719440787243 -21.177478043231485 C103.92191058337528 -20.64334254940247, 104.37662675887813 -20.109207055573453, 104.77612919774293 -19.63992875855011 M104.77612919774293 -19.63992875855011 C105.16171199555852 -19.123282936792748, 105.54729479337409 -18.606637115035387, 105.9838635198041 -18.02167479384835 M104.77612919774293 -19.63992875855011 C105.15575064056588 -19.13127060939226, 105.53537208338884 -18.622612460234407, 105.9838635198041 -18.02167479384835 M105.9838635198041 -18.02167479384835 C106.26701520953354 -17.586677761549083, 106.55016689926296 -17.151680729249815, 107.0854345346684 -16.329365901781543 M105.9838635198041 -18.02167479384835 C106.3699551534751 -17.42853436440946, 106.7560467871461 -16.835393934970575, 107.0854345346684 -16.329365901781543 M107.0854345346684 -16.329365901781543 C107.29538358753678 -15.956580098766825, 107.50533264040514 -15.583794295752107, 108.0763156507495 -14.56995614258631 M107.0854345346684 -16.329365901781543 C107.42568663541806 -15.725213842639233, 107.76593873616771 -15.121061783496925, 108.0763156507495 -14.56995614258631 M108.0763156507495 -14.56995614258631 C108.31488962167899 -14.074552187286002, 108.55346359260848 -13.579148231985695, 108.95243512499809 -12.750675308355413 M108.0763156507495 -14.56995614258631 C108.34005111355955 -14.022303811026353, 108.60378657636959 -13.474651479466395, 108.95243512499809 -12.750675308355413 M108.95243512499809 -12.750675308355413 C109.21074045787691 -12.112656142150843, 109.46904579075574 -11.474636975946273, 109.71019279456745 -10.878999214271206 M108.95243512499809 -12.750675308355413 C109.10432796166249 -12.375497065146137, 109.25622079832688 -12.00031882193686, 109.71019279456745 -10.878999214271206 M109.71019279456745 -10.878999214271206 C109.86262077888031 -10.419910411622041, 110.01504876319318 -9.960821608972877, 110.34647487065482 -8.962618978877531 M109.71019279456745 -10.878999214271206 C109.9029156709584 -10.298548616802073, 110.09563854734932 -9.718098019332938, 110.34647487065482 -8.962618978877531 M110.34647487065482 -8.962618978877531 C110.54329312772448 -8.212065663098675, 110.74011138479415 -7.461512347319821, 110.85866673372745 -7.009409419623907 M110.34647487065482 -8.962618978877531 C110.46757654005174 -8.500805827671535, 110.58867820944866 -8.03899267646554, 110.85866673372745 -7.009409419623907 M110.85866673372745 -7.009409419623907 C110.95626764703245 -6.508249357763079, 111.05386856033743 -6.00708929590225, 111.24466367755518 -5.027396693551458 M110.85866673372745 -7.009409419623907 C111.00903632457457 -6.237293351248206, 111.1594059154217 -5.465177282872506, 111.24466367755518 -5.027396693551458 M111.24466367755518 -5.027396693551458 C111.3062889142069 -4.549443527360123, 111.36791415085862 -4.071490361168787, 111.50287955789975 -3.024725316091981 M111.24466367755518 -5.027396693551458 C111.33949958665288 -4.291868110058173, 111.43433549575057 -3.556339526564889, 111.50287955789975 -3.024725316091981 M111.50287955789975 -3.024725316091981 C111.5528025571699 -2.2471343053397463, 111.60272555644003 -1.469543294587512, 111.63225331032167 -1.0096246935071378 M111.50287955789975 -3.024725316091981 C111.54732390218454 -2.3324687790272396, 111.59176824646934 -1.6402122419624978, 111.63225331032167 -1.0096246935071378 M111.63225331032167 -1.0096246935071378 C111.63225331032167 -0.3187117851040596, 111.63225331032167 0.37220112329901855, 111.63225331032167 1.00962469350713 M111.63225331032167 -1.0096246935071378 C111.63225331032167 -0.5475133752581753, 111.63225331032167 -0.08540205700921288, 111.63225331032167 1.00962469350713 M111.63225331032167 1.00962469350713 C111.60218971346612 1.477889481431034, 111.57212611661056 1.9461542693549378, 111.50287955789975 3.02472531609196 M111.63225331032167 1.00962469350713 C111.5928198037409 1.623833388656426, 111.5533862971601 2.2380420838057216, 111.50287955789975 3.02472531609196 M111.50287955789975 3.02472531609196 C111.40519787394588 3.782325167407847, 111.30751618999201 4.539925018723734, 111.24466367755518 5.027396693551435 M111.50287955789975 3.02472531609196 C111.43939912935681 3.5170669842424314, 111.37591870081388 4.009408652392903, 111.24466367755518 5.027396693551435 M111.24466367755518 5.027396693551435 C111.0962708318282 5.789362593520377, 110.94787798610125 6.5513284934893194, 110.85866673372745 7.0094094196239 M111.24466367755518 5.027396693551435 C111.16726616662773 5.42481655419416, 111.08986865570029 5.822236414836885, 110.85866673372745 7.0094094196239 M110.85866673372745 7.0094094196239 C110.72328485654428 7.525679192200039, 110.58790297936112 8.041948964776179, 110.34647487065482 8.96261897887751 M110.85866673372745 7.0094094196239 C110.6819021138514 7.683489525482168, 110.50513749397534 8.357569631340436, 110.34647487065482 8.96261897887751 M110.34647487065482 8.96261897887751 C110.09635330241892 9.71594529094408, 109.84623173418302 10.469271603010652, 109.71019279456746 10.878999214271184 M110.34647487065482 8.96261897887751 C110.14202855802145 9.578378698432958, 109.93758224538807 10.194138417988407, 109.71019279456746 10.878999214271184 M109.71019279456746 10.878999214271184 C109.4666928905419 11.48044868496469, 109.22319298651634 12.081898155658196, 108.95243512499809 12.750675308355405 M109.71019279456746 10.878999214271184 C109.48874137021164 11.42598851390208, 109.26728994585582 11.972977813532976, 108.95243512499809 12.750675308355405 M108.95243512499809 12.750675308355405 C108.62772731128346 13.424938031168058, 108.30301949756884 14.099200753980712, 108.0763156507495 14.569956142586303 M108.95243512499809 12.750675308355405 C108.62563366496691 13.429285532541236, 108.29883220493572 14.107895756727068, 108.0763156507495 14.569956142586303 M108.0763156507495 14.569956142586303 C107.78682692119122 15.0839726958296, 107.49733819163293 15.597989249072894, 107.08543453466841 16.329365901781536 M108.0763156507495 14.569956142586303 C107.80793496935061 15.046493218900963, 107.5395542879517 15.523030295215623, 107.08543453466841 16.329365901781536 M107.08543453466841 16.329365901781536 C106.7634485782741 16.824022796138777, 106.44146262187978 17.318679690496023, 105.98386351980412 18.021674793848334 M107.08543453466841 16.329365901781536 C106.83715820306271 16.710785018657813, 106.58888187145702 17.092204135534086, 105.98386351980412 18.021674793848334 M105.98386351980412 18.021674793848334 C105.66937334336447 18.443062979632995, 105.35488316692482 18.864451165417655, 104.77612919774295 19.639928758550102 M105.98386351980412 18.021674793848334 C105.54451373267914 18.610363483006797, 105.10516394555415 19.19905217216526, 104.77612919774295 19.639928758550102 M104.77612919774295 19.639928758550102 C104.45004882838904 20.022961314891845, 104.12396845903513 20.405993871233584, 103.46719440787246 21.177478043231467 M104.77612919774295 19.639928758550102 C104.46269761540105 20.008103329931156, 104.14926603305918 20.37627790131221, 103.46719440787246 21.177478043231467 M103.46719440787246 21.177478043231467 C103.06840078778602 21.589265197535823, 102.6696071676996 22.00105235184018, 102.06243784400982 22.628004528078414 M103.46719440787246 21.177478043231467 C103.168666153437 21.48573297556157, 102.87013789900155 21.79398790789168, 102.06243784400982 22.628004528078414 M102.06243784400982 22.628004528078414 C101.62572953261991 23.02461146181399, 101.18902122122999 23.42121839554957, 100.56763195219536 23.985547688627715 M102.06243784400982 22.628004528078414 C101.49261893034247 23.145498988888814, 100.92280001667514 23.66299344969921, 100.56763195219536 23.985547688627715 M100.56763195219536 23.985547688627715 C100.01792048822902 24.423927952704453, 99.46820902426269 24.862308216781194, 98.98891921047331 25.24452908884063 M100.56763195219536 23.985547688627715 C99.95559609140689 24.47363000064825, 99.34356023061844 24.961712312668787, 98.98891921047331 25.24452908884063 M98.98891921047331 25.24452908884063 C98.64152712236677 25.48685477114264, 98.29413503426022 25.729180453444645, 97.33278688813229 26.399775304092973 M98.98891921047331 25.24452908884063 C98.52905850008203 25.565308013360283, 98.06919778969073 25.886086937879938, 97.33278688813229 26.399775304092973 M97.33278688813229 26.399775304092973 C96.87402496628384 26.677879477101804, 96.4152630444354 26.955983650110635, 95.60604038812404 27.446539179886766 M97.33278688813229 26.399775304092973 C96.81314357956079 26.714786131512064, 96.29350027098928 27.029796958931154, 95.60604038812404 27.446539179886766 M95.60604038812404 27.446539179886766 C94.91357747758387 27.807796636771908, 94.22111456704371 28.169054093657053, 93.81577528220309 28.3805193389262 M95.60604038812404 27.446539179886766 C95.00075424913086 27.762316570895234, 94.39546811013768 28.0780939619037, 93.81577528220309 28.3805193389262 M93.81577528220309 28.3805193389262 C93.17046277516931 28.666180043274665, 92.52515026813555 28.95184074762313, 91.9693481537003 29.197877856399682 M93.81577528220309 28.3805193389262 C93.20671512757949 28.650132202250507, 92.5976549729559 28.919745065574812, 91.9693481537003 29.197877856399682 M91.9693481537003 29.197877856399682 C91.26119925571768 29.458483196913935, 90.55305035773507 29.719088537428192, 90.07434636774407 29.895256030836055 M91.9693481537003 29.197877856399682 C91.3307719780785 29.43287979196196, 90.69219580245672 29.667881727524236, 90.07434636774407 29.895256030836055 M90.07434636774407 29.895256030836055 C89.52842719141154 30.05728197678332, 88.98250801507902 30.219307922730582, 88.13855689314951 30.46978818572942 M90.07434636774407 29.895256030836055 C89.56811145626885 30.045503895280625, 89.06187654479365 30.19575175972519, 88.13855689314951 30.46978818572942 M88.13855689314951 30.46978818572942 C87.36428591337562 30.64651048427248, 86.59001493360172 30.823232782815538, 86.16993430409323 30.919113445218557 M88.13855689314951 30.46978818572942 C87.52343484396512 30.610185779409253, 86.90831279478073 30.750583373089086, 86.16993430409323 30.919113445218557 M86.16993430409323 30.919113445218557 C85.51581437756211 31.024866482164317, 84.86169445103098 31.130619519110077, 84.17656809306196 31.24138543543225 M86.16993430409323 30.919113445218557 C85.48433335930157 31.029956089057738, 84.79873241450993 31.140798732896915, 84.17656809306196 31.24138543543225 M84.17656809306196 31.24138543543225 C83.65729165887032 31.291479408517436, 83.13801522467868 31.34157338160262, 82.16664942939245 31.435279871635593 M84.17656809306196 31.24138543543225 C83.5202617699614 31.304698517097926, 82.86395544686084 31.3680115987636, 82.16664942939245 31.435279871635593 M82.16664942939245 31.435279871635593 C81.6780469321195 31.45094840271607, 81.18944443484654 31.466616933796548, 80.1484375 31.5 M82.16664942939245 31.435279871635593 C81.74882112343934 31.44867881215405, 81.33099281748625 31.462077752672506, 80.1484375 31.5 M80.1484375 31.5 C80.1484375 31.5, 80.1484375 31.5, 80.1484375 31.5 M80.1484375 31.5 C80.1484375 31.5, 80.1484375 31.5, 80.1484375 31.5 M80.1484375 31.5 C26.33568034314724 31.5, -27.477076813705523 31.5, -80.1484375 31.5 M80.1484375 31.5 C35.72987490072346 31.5, -8.688687698553082 31.5, -80.1484375 31.5 M-80.1484375 31.5 C-80.59257827275431 31.48575726988534, -81.0367190455086 31.471514539770677, -82.16664942939244 31.435279871635593 M-80.1484375 31.5 C-80.84836460319171 31.4775547001261, -81.54829170638342 31.4551094002522, -82.16664942939244 31.435279871635593 M-82.16664942939244 31.435279871635593 C-82.96276283773174 31.358479768599558, -83.75887624607104 31.28167966556352, -84.17656809306195 31.24138543543225 M-82.16664942939244 31.435279871635593 C-82.94915929786175 31.359792085730163, -83.73166916633107 31.284304299824733, -84.17656809306195 31.24138543543225 M-84.17656809306195 31.24138543543225 C-84.97038227958383 31.113047713876348, -85.76419646610573 30.98470999232045, -86.16993430409323 30.919113445218557 M-84.17656809306195 31.24138543543225 C-84.89904087994748 31.124581638108737, -85.62151366683301 31.007777840785227, -86.16993430409323 30.919113445218557 M-86.16993430409323 30.919113445218557 C-86.57288434040916 30.82714272892417, -86.9758343767251 30.735172012629786, -88.13855689314947 30.469788185729428 M-86.16993430409323 30.919113445218557 C-86.8268483968529 30.769177090311235, -87.48376248961256 30.619240735403917, -88.13855689314947 30.469788185729428 M-88.13855689314947 30.469788185729428 C-88.88814981848566 30.247312940183203, -89.63774274382186 30.02483769463698, -90.07434636774403 29.89525603083607 M-88.13855689314947 30.469788185729428 C-88.6337209549906 30.322826091344183, -89.12888501683173 30.175863996958935, -90.07434636774403 29.89525603083607 M-90.07434636774403 29.89525603083607 C-90.74088691520001 29.64996294793899, -91.40742746265597 29.404669865041917, -91.96934815370028 29.197877856399685 M-90.07434636774403 29.89525603083607 C-90.72101696797901 29.6572752721921, -91.36768756821398 29.419294513548127, -91.96934815370028 29.197877856399685 M-91.96934815370028 29.197877856399685 C-92.47854646464818 28.972470868974273, -92.98774477559607 28.747063881548858, -93.81577528220308 28.380519338926206 M-91.96934815370028 29.197877856399685 C-92.68826285885945 28.879635642272746, -93.40717756401861 28.561393428145806, -93.81577528220308 28.380519338926206 M-93.81577528220308 28.380519338926206 C-94.3047849665423 28.125403299832083, -94.79379465088154 27.870287260737957, -95.60604038812403 27.446539179886773 M-93.81577528220308 28.380519338926206 C-94.45262985494347 28.048272716252367, -95.08948442768386 27.716026093578527, -95.60604038812403 27.446539179886773 M-95.60604038812403 27.446539179886773 C-96.19640344065517 27.088657628084004, -96.78676649318632 26.73077607628123, -97.33278688813226 26.399775304092994 M-95.60604038812403 27.446539179886773 C-96.10053516199316 27.146773541993458, -96.59502993586229 26.847007904100142, -97.33278688813226 26.399775304092994 M-97.33278688813226 26.399775304092994 C-97.88028633604773 26.01786339009627, -98.42778578396322 25.635951476099542, -98.9889192104733 25.244529088840636 M-97.33278688813226 26.399775304092994 C-97.82188806322988 26.05859949719352, -98.3109892383275 25.717423690294044, -98.9889192104733 25.244529088840636 M-98.9889192104733 25.244529088840636 C-99.55779494006393 24.790865832911045, -100.12667066965457 24.33720257698145, -100.56763195219533 23.98554768862774 M-98.9889192104733 25.244529088840636 C-99.58381097195432 24.770118739794142, -100.17870273343534 24.29570839074765, -100.56763195219533 23.98554768862774 M-100.56763195219533 23.98554768862774 C-100.96244008387185 23.626993389489854, -101.3572482155484 23.268439090351965, -102.0624378440098 22.628004528078435 M-100.56763195219533 23.98554768862774 C-101.05490784738345 23.543016613231583, -101.54218374257157 23.100485537835425, -102.0624378440098 22.628004528078435 M-102.0624378440098 22.628004528078435 C-102.57030848656412 22.103586392685905, -103.07817912911841 21.579168257293375, -103.46719440787244 21.177478043231478 M-102.0624378440098 22.628004528078435 C-102.61292469969682 22.059581653770213, -103.16341155538383 21.49115877946199, -103.46719440787244 21.177478043231478 M-103.46719440787244 21.177478043231478 C-103.76748149245408 20.824743746862715, -104.06776857703574 20.47200945049395, -104.77612919774293 19.639928758550113 M-103.46719440787244 21.177478043231478 C-103.82048940441473 20.762477637238113, -104.173784400957 20.347477231244746, -104.77612919774293 19.639928758550113 M-104.77612919774293 19.639928758550113 C-105.2368098088765 19.02265870849818, -105.69749042001008 18.40538865844625, -105.9838635198041 18.021674793848355 M-104.77612919774293 19.639928758550113 C-105.24850060816793 19.00699410250139, -105.72087201859294 18.37405944645267, -105.9838635198041 18.021674793848355 M-105.9838635198041 18.021674793848355 C-106.2326640022461 17.63945044053332, -106.48146448468809 17.25722608721829, -107.0854345346684 16.329365901781557 M-105.9838635198041 18.021674793848355 C-106.26981842289027 17.582371273064965, -106.55577332597643 17.143067752281574, -107.0854345346684 16.329365901781557 M-107.0854345346684 16.329365901781557 C-107.32343762278839 15.906767318398478, -107.56144071090839 15.484168735015396, -108.0763156507495 14.569956142586314 M-107.0854345346684 16.329365901781557 C-107.3174636853664 15.91737464921797, -107.54949283606442 15.505383396654384, -108.0763156507495 14.569956142586314 M-108.0763156507495 14.569956142586314 C-108.34231931223299 14.017593847949279, -108.60832297371647 13.465231553312243, -108.95243512499809 12.750675308355417 M-108.0763156507495 14.569956142586314 C-108.25493613338315 14.199046888531473, -108.4335566160168 13.828137634476631, -108.95243512499809 12.750675308355417 M-108.95243512499809 12.750675308355417 C-109.24875326700895 12.018763768667055, -109.54507140901981 11.286852228978695, -109.71019279456745 10.878999214271209 M-108.95243512499809 12.750675308355417 C-109.20456418691599 12.127911650834399, -109.4566932488339 11.505147993313383, -109.71019279456745 10.878999214271209 M-109.71019279456745 10.878999214271209 C-109.91928924532415 10.249234019587185, -110.12838569608085 9.619468824903159, -110.34647487065482 8.962618978877522 M-109.71019279456745 10.878999214271209 C-109.9023551171594 10.300236915532482, -110.09451743975137 9.721474616793754, -110.34647487065482 8.962618978877522 M-110.34647487065482 8.962618978877522 C-110.52507446271319 8.28154132880608, -110.70367405477157 7.600463678734638, -110.85866673372743 7.009409419623911 M-110.34647487065482 8.962618978877522 C-110.5257914907095 8.278806990294294, -110.70510811076416 7.594995001711066, -110.85866673372743 7.009409419623911 M-110.85866673372743 7.009409419623911 C-110.97418690669659 6.416237746624534, -111.08970707966574 5.823066073625158, -111.24466367755518 5.027396693551461 M-110.85866673372743 7.009409419623911 C-111.00720863369223 6.24667815764641, -111.15575053365701 5.483946895668908, -111.24466367755518 5.027396693551461 M-111.24466367755518 5.027396693551461 C-111.32881198172483 4.374759063373877, -111.41296028589447 3.7221214331962926, -111.50287955789975 3.024725316091999 M-111.24466367755518 5.027396693551461 C-111.30537103376615 4.5565624268025715, -111.36607838997713 4.085728160053682, -111.50287955789975 3.024725316091999 M-111.50287955789975 3.024725316091999 C-111.55329116290731 2.2395238765840686, -111.60370276791487 1.4543224370761378, -111.63225331032167 1.0096246935071416 M-111.50287955789975 3.024725316091999 C-111.5427944671053 2.4030183864807513, -111.58270937631085 1.7813114568695039, -111.63225331032167 1.0096246935071416 M-111.63225331032167 1.0096246935071416 C-111.63225331032167 0.3388027946318801, -111.63225331032167 -0.3320191042433813, -111.63225331032167 -1.0096246935071262 M-111.63225331032167 1.0096246935071416 C-111.63225331032167 0.45857047468251233, -111.63225331032167 -0.09248374414211691, -111.63225331032167 -1.0096246935071262 M-111.63225331032167 -1.0096246935071262 C-111.58977912201897 -1.6711944608694393, -111.54730493371626 -2.3327642282317527, -111.50287955789975 -3.024725316091956 M-111.63225331032167 -1.0096246935071262 C-111.59402897547524 -1.6049995628680203, -111.5558046406288 -2.200374432228914, -111.50287955789975 -3.024725316091956 M-111.50287955789975 -3.024725316091956 C-111.43716081380958 -3.534426917621416, -111.37144206971941 -4.044128519150876, -111.24466367755518 -5.027396693551446 M-111.50287955789975 -3.024725316091956 C-111.43531787355742 -3.5487203982873763, -111.36775618921511 -4.072715480482797, -111.24466367755518 -5.027396693551446 M-111.24466367755518 -5.027396693551446 C-111.11249225173809 -5.706069030681466, -110.980320825921 -6.384741367811486, -110.85866673372745 -7.009409419623896 M-111.24466367755518 -5.027396693551446 C-111.09787604966554 -5.781120139188577, -110.9510884217759 -6.534843584825708, -110.85866673372745 -7.009409419623896 M-110.85866673372745 -7.009409419623896 C-110.749885812179 -7.424238219437728, -110.64110489063057 -7.8390670192515595, -110.34647487065482 -8.962618978877506 M-110.85866673372745 -7.009409419623896 C-110.71570145401905 -7.5545979926961815, -110.57273617431066 -8.099786565768467, -110.34647487065482 -8.962618978877506 M-110.34647487065482 -8.962618978877506 C-110.21810841535641 -9.349238289819153, -110.089741960058 -9.7358576007608, -109.71019279456746 -10.878999214271168 M-110.34647487065482 -8.962618978877506 C-110.17249567089033 -9.486616608747068, -109.99851647112585 -10.01061423861663, -109.71019279456746 -10.878999214271168 M-109.71019279456746 -10.878999214271168 C-109.4956318175869 -11.40896897566746, -109.28107084060632 -11.93893873706375, -108.95243512499809 -12.750675308355401 M-109.71019279456746 -10.878999214271168 C-109.54534201509178 -11.286183826749111, -109.38049123561609 -11.693368439227052, -108.95243512499809 -12.750675308355401 M-108.95243512499809 -12.750675308355401 C-108.62482943649712 -13.430955530166461, -108.29722374799617 -14.111235751977521, -108.0763156507495 -14.5699561425863 M-108.95243512499809 -12.750675308355401 C-108.69375852746565 -13.287822797924065, -108.43508192993319 -13.82497028749273, -108.0763156507495 -14.5699561425863 M-108.0763156507495 -14.5699561425863 C-107.73985690013043 -15.16737272445339, -107.40339814951137 -15.76478930632048, -107.0854345346684 -16.329365901781546 M-108.0763156507495 -14.5699561425863 C-107.74391730838556 -15.160163058435508, -107.4115189660216 -15.750369974284718, -107.0854345346684 -16.329365901781546 M-107.0854345346684 -16.329365901781546 C-106.78820024264255 -16.78599759291633, -106.49096595061668 -17.242629284051112, -105.98386351980412 -18.021674793848344 M-107.0854345346684 -16.329365901781546 C-106.77688133232657 -16.803386478714653, -106.46832812998474 -17.277407055647764, -105.98386351980412 -18.021674793848344 M-105.98386351980412 -18.021674793848344 C-105.73406411383296 -18.356383240655653, -105.4842647078618 -18.69109168746296, -104.77612919774295 -19.639928758550102 M-105.98386351980412 -18.021674793848344 C-105.68087033935942 -18.427658052397653, -105.37787715891471 -18.83364131094696, -104.77612919774295 -19.639928758550102 M-104.77612919774295 -19.639928758550102 C-104.25722009802953 -20.249468913837713, -103.73831099831611 -20.859009069125328, -103.46719440787246 -21.177478043231467 M-104.77612919774295 -19.639928758550102 C-104.26506289451441 -20.240256318818805, -103.75399659128588 -20.84058387908751, -103.46719440787246 -21.177478043231467 M-103.46719440787246 -21.177478043231467 C-102.97783674907205 -21.68278000295386, -102.48847909027165 -22.188081962676254, -102.06243784400984 -22.628004528078403 M-103.46719440787246 -21.177478043231467 C-103.00106244422274 -21.658797565845735, -102.53493048057304 -22.140117088460002, -102.06243784400984 -22.628004528078403 M-102.06243784400984 -22.628004528078403 C-101.54024958831499 -23.10224208555633, -101.01806133262015 -23.576479643034254, -100.56763195219536 -23.98554768862771 M-102.06243784400984 -22.628004528078403 C-101.71940827935255 -22.93953490263522, -101.37637871469528 -23.251065277192033, -100.56763195219536 -23.98554768862771 M-100.56763195219536 -23.98554768862771 C-100.04046477974603 -24.405949480148433, -99.5132976072967 -24.82635127166915, -98.98891921047331 -25.244529088840626 M-100.56763195219536 -23.98554768862771 C-100.21048727966168 -24.270361060954446, -99.85334260712798 -24.55517443328118, -98.98891921047331 -25.244529088840626 M-98.98891921047331 -25.244529088840626 C-98.33838929728788 -25.69831059529272, -97.68785938410244 -26.152092101744817, -97.3327868881323 -26.39977530409297 M-98.98891921047331 -25.244529088840626 C-98.65677823452712 -25.476216255509573, -98.32463725858094 -25.707903422178518, -97.3327868881323 -26.39977530409297 M-97.3327868881323 -26.39977530409297 C-96.91813683707863 -26.651138601795882, -96.50348678602495 -26.902501899498795, -95.60604038812404 -27.446539179886763 M-97.3327868881323 -26.39977530409297 C-96.77167498248328 -26.739924638756982, -96.21056307683423 -27.080073973420998, -95.60604038812404 -27.446539179886763 M-95.60604038812404 -27.446539179886763 C-95.08716488647417 -27.717236196741883, -94.56828938482428 -27.987933213597003, -93.81577528220309 -28.3805193389262 M-95.60604038812404 -27.446539179886763 C-95.10246630486893 -27.709253456566366, -94.59889222161381 -27.971967733245968, -93.81577528220309 -28.3805193389262 M-93.81577528220309 -28.3805193389262 C-93.17598733040981 -28.663734486549806, -92.53619937861652 -28.946949634173414, -91.9693481537003 -29.19787785639968 M-93.81577528220309 -28.3805193389262 C-93.27108368283585 -28.621638152263863, -92.72639208346861 -28.862756965601527, -91.9693481537003 -29.19787785639968 M-91.9693481537003 -29.19787785639968 C-91.36738025419777 -29.419407607946873, -90.76541235469524 -29.640937359494067, -90.07434636774407 -29.895256030836055 M-91.9693481537003 -29.19787785639968 C-91.53724886993568 -29.35689438710705, -91.10514958617107 -29.515910917814423, -90.07434636774407 -29.895256030836055 M-90.07434636774407 -29.895256030836055 C-89.46092922807489 -30.077315017997595, -88.84751208840571 -30.259374005159138, -88.13855689314951 -30.469788185729417 M-90.07434636774407 -29.895256030836055 C-89.30180442550143 -30.124542424138262, -88.5292624832588 -30.353828817440473, -88.13855689314951 -30.469788185729417 M-88.13855689314951 -30.469788185729417 C-87.40561254725037 -30.637077949772053, -86.67266820135123 -30.80436771381469, -86.16993430409325 -30.919113445218553 M-88.13855689314951 -30.469788185729417 C-87.42237767248785 -30.633251419339263, -86.7061984518262 -30.796714652949113, -86.16993430409325 -30.919113445218553 M-86.16993430409325 -30.919113445218553 C-85.45027995207705 -31.03546157984968, -84.73062560006086 -31.151809714480805, -84.17656809306196 -31.24138543543225 M-86.16993430409325 -30.919113445218553 C-85.45019921168861 -31.03547463332953, -84.73046411928398 -31.15183582144051, -84.17656809306196 -31.24138543543225 M-84.17656809306196 -31.24138543543225 C-83.75559022868356 -31.281996663708878, -83.33461236430516 -31.322607891985506, -82.16664942939246 -31.435279871635593 M-84.17656809306196 -31.24138543543225 C-83.60482977949883 -31.296540342925763, -83.0330914659357 -31.351695250419272, -82.16664942939246 -31.435279871635593 M-82.16664942939246 -31.435279871635593 C-81.729771303612 -31.44928970279769, -81.29289317783152 -31.463299533959784, -80.14843750000001 -31.5 M-82.16664942939246 -31.435279871635593 C-81.48585017869762 -31.457111778510026, -80.80505092800277 -31.478943685384458, -80.14843750000001 -31.5 M-80.14843750000001 -31.5 C-80.14843750000001 -31.5, -80.14843750000001 -31.5, -80.1484375 -31.5 M-80.14843750000001 -31.5 C-80.14843750000001 -31.5, -80.14843750000001 -31.5, -80.1484375 -31.5" stroke="#9370DB" stroke-width="1.3" fill="none" stroke-dasharray="0 0" style=""/></g><g class="label" style="" transform="translate(-96.2734375, -24)"><rect/><foreignObject width="192.546875" height="48"><div xmlns="http://www.w3.org/1999/xhtml" style="display: table-cell; white-space: nowrap; line-height: 1.5; max-width: 200px; text-align: center;"><span class="nodeLabel "><p>Execution continues until<br />Project status = Completed</p></span></div></foreignObject></g></g></g></g></g></svg>